<svg width="42" height="41" viewBox="0 0 42 41" fill="none" xmlns="http://www.w3.org/2000/svg">
<path d="M35.6981 4.48975H6.23896C5.5305 4.48975 4.95813 5.06212 4.95813 5.77058V35.2297C4.95813 35.9382 5.5305 36.5105 6.23896 36.5105H35.6981C36.4065 36.5105 36.9789 35.9382 36.9789 35.2297V5.77058C36.9789 5.06212 36.4065 4.48975 35.6981 4.48975ZM14.4563 31.7755H9.70521V16.4935H14.4563V31.7755ZM12.0828 14.4042C11.5381 14.4042 11.0057 14.2427 10.5528 13.9401C10.1 13.6375 9.74701 13.2074 9.53859 12.7042C9.33016 12.201 9.27562 11.6473 9.38188 11.1132C9.48813 10.579 9.75041 10.0883 10.1355 9.70317C10.5207 9.31805 11.0113 9.05577 11.5455 8.94952C12.0797 8.84326 12.6334 8.8978 13.1366 9.10623C13.6398 9.31465 14.0699 9.66761 14.3724 10.1205C14.675 10.5733 14.8365 11.1057 14.8365 11.6504C14.8325 13.1714 13.5997 14.4042 12.0828 14.4042ZM32.2438 31.7755H27.4968V24.3426C27.4968 22.5695 27.4647 20.292 25.0272 20.292C22.5576 20.292 22.1773 22.2213 22.1773 24.2145V31.7755H17.4342V16.4935H21.9892V18.5829H22.0532C22.6856 17.3821 24.2346 16.1133 26.5481 16.1133C31.3593 16.1133 32.2438 19.2793 32.2438 23.394V31.7755Z" fill="white"/>
</svg>
