<svg width="281" height="497" viewBox="0 0 281 497" fill="none" xmlns="http://www.w3.org/2000/svg">
<path fill-rule="evenodd" clip-rule="evenodd" d="M250.913 0.0289103C296.961 -1.03399 336.722 27.4039 374.56 53.621C413.239 80.4199 450.54 109.729 470.605 152.246C492.597 198.849 506.984 252.388 491.562 301.549C476.072 350.928 429.034 380.316 388.818 412.965C345.998 447.728 306.073 494.992 250.913 496.92C195.259 498.866 142.108 465.012 105.805 422.86C73.4526 385.295 84.033 329.669 66.8453 283.197C48.5336 233.687 -12.368 193.569 2.24109 142.847C16.7713 92.3984 85.7697 85.4132 131.351 59.2348C170.88 36.5325 205.32 1.08128 250.913 0.0289103Z" fill="#00B6F0"/>
</svg>
