<svg width="47" height="47" viewBox="0 0 47 47" fill="none" xmlns="http://www.w3.org/2000/svg">
<path d="M23.5 27.3402C27.7282 27.3402 31.1667 23.9017 31.1667 19.6735C31.1667 15.4453 27.7282 12.0068 23.5 12.0068C19.2719 12.0068 15.8334 15.4453 15.8334 19.6735C15.8334 23.9017 19.2719 27.3402 23.5 27.3402ZM23.5 15.8402C25.6141 15.8402 27.3334 17.5594 27.3334 19.6735C27.3334 21.7876 25.6141 23.5068 23.5 23.5068C21.386 23.5068 19.6667 21.7876 19.6667 19.6735C19.6667 17.5594 21.386 15.8402 23.5 15.8402Z" fill="white"/>
<path d="M22.3885 42.3172C22.7129 42.5488 23.1015 42.6734 23.5001 42.6734C23.8987 42.6734 24.2874 42.5488 24.6118 42.3172C25.1945 41.9051 38.889 32.017 38.8335 19.6737C38.8335 11.2192 31.9545 4.34033 23.5001 4.34033C15.0457 4.34033 8.16679 11.2192 8.16679 19.6641C8.11121 32.017 21.8058 41.9051 22.3885 42.3172ZM23.5001 8.17367C29.8424 8.17367 35.0001 13.3314 35.0001 19.6832C35.0404 28.1894 26.5898 35.8273 23.5001 38.3324C20.4124 35.8254 11.9599 28.1856 12.0001 19.6737C12.0001 13.3314 17.1579 8.17367 23.5001 8.17367Z" fill="white"/>
</svg>
