<svg width="40" height="40" viewBox="0 0 40 40" fill="none" xmlns="http://www.w3.org/2000/svg">
<path d="M38.0928 0.506836H1.90645C1.03621 0.506836 0.33313 1.20991 0.33313 2.08016V38.2665C0.33313 39.1368 1.03621 39.8399 1.90645 39.8399H38.0928C38.9631 39.8399 39.6661 39.1368 39.6661 38.2665V2.08016C39.6661 1.20991 38.9631 0.506836 38.0928 0.506836ZM33.5499 11.9872H30.4081C27.9449 11.9872 27.468 13.1573 27.468 14.8781V18.6689H33.3483L32.5813 24.6032H27.468V39.8399H21.337V24.6081H16.2089V18.6689H21.337V14.2931C21.337 9.21418 24.4394 6.44612 28.9725 6.44612C31.1456 6.44612 33.009 6.60837 33.5548 6.68212V11.9872H33.5499Z" fill="#112D57"/>
</svg>
