<svg width="150" height="60" viewBox="0 0 150 60" fill="none" xmlns="http://www.w3.org/2000/svg">
<path d="M0.0731812 0V4.10107H29.242V0H0.0731812ZM33.3746 0V4.10107H74.9415C74.9415 4.10107 70.6955 0 65.0722 0H33.3746ZM83.0956 0V4.10107H108.243L106.75 0H83.0956ZM126.272 0L124.78 4.10107H149.699V0H126.272ZM0.0731812 7.97561V12.0767H29.242V7.97561H0.0731812ZM33.3746 7.98146V12.0767H79.7649C79.7649 12.0767 79.2231 8.92039 78.2781 7.98146H33.3746ZM83.0956 7.98146V12.0767H111L109.619 7.98146H83.0956ZM123.287 7.98146L121.905 12.0767H149.699V7.98146H123.287ZM8.45562 15.9512V20.0576H21.0878V15.9512H8.45562ZM41.7571 15.9512V20.0576H54.3893V15.9512H41.7571ZM66.6761 15.9512V20.0576H79.3083C79.3083 20.0576 80.1103 17.8888 80.1103 15.9509H66.6761V15.9512ZM91.4781 15.9512V20.0576H113.874L112.381 15.9509H91.4781V15.9512ZM120.536 15.9512L119.037 20.0579H141.544V15.9512H120.536ZM8.45562 23.9327V28.0332H21.0878V23.9327H8.45562ZM41.7571 23.9327V28.0332H74.0224C74.0224 28.0332 76.7216 25.9288 77.5815 23.9321H41.7571V23.9327ZM91.4781 23.9327V28.0332H104.11V25.7502L104.912 28.0332H128.052L128.912 25.7502V28.0332H141.544V23.9327H117.831L116.573 27.4065L115.308 23.9327H91.4781ZM8.45562 31.9077V36.0088H21.0878V31.9077H8.45562ZM41.7571 31.9077V36.0088H77.5815C76.7213 34.0185 74.0224 31.9077 74.0224 31.9077H41.7571ZM91.4781 31.9077V36.0088H104.11V31.9077H91.4781ZM106.405 31.9077L107.933 36.0088H125.283L126.735 31.9077H106.405ZM128.912 31.9077V36.0088H141.544V31.9077H128.912ZM8.45562 39.8833V43.9844H21.0878V39.8833H8.45562ZM41.7571 39.8833V43.9844H54.3893V39.8833H41.7571ZM66.6761 39.8833V43.9844H80.1103C80.1103 42.0489 79.3083 39.8833 79.3083 39.8833H66.6761ZM91.4781 39.8833V43.9844H104.11V39.8833H91.4781ZM109.273 39.8833L110.754 43.9844H122.385L123.878 39.8833H109.273ZM128.912 39.8833V43.9844H141.544V39.8833H128.912ZM0.301474 47.8592V51.9659H29.4703V47.8589H0.301474V47.8592ZM33.3746 47.8592V51.9659H78.2781C79.2231 51.0255 79.7649 47.8589 79.7649 47.8589H33.3746V47.8592ZM83.3239 47.8592V51.9659H104.11V47.8589H83.3239V47.8592ZM112.147 47.8592L113.669 51.9659H119.587L121.016 47.8589H112.147V47.8592ZM128.912 47.8592V51.9659H149.927V47.8589H128.912V47.8592ZM0.301474 55.8404V59.9415H29.4703V55.8404H0.301474ZM33.3746 55.8404V59.9353H65.0722C70.6955 59.9353 74.9415 55.8401 74.9415 55.8401H33.3746V55.8404ZM83.3239 55.8404V59.9415H104.11V55.8404H83.3239ZM115.033 55.8404L116.497 59.9295L116.748 59.9353L118.235 55.8401H115.033V55.8404ZM128.912 55.8404V59.9415H149.927V55.8404H128.912Z" fill="#1F70C1"/>
</svg>
