<svg width="40" height="40" viewBox="0 0 40 40" fill="none" xmlns="http://www.w3.org/2000/svg">
<path d="M37.9212 0.506836H1.73482C0.864577 0.506836 0.161499 1.20991 0.161499 2.08016V38.2665C0.161499 39.1368 0.864577 39.8399 1.73482 39.8399H37.9212C38.7914 39.8399 39.4945 39.1368 39.4945 38.2665V2.08016C39.4945 1.20991 38.7914 0.506836 37.9212 0.506836ZM11.8287 34.0235H5.99262V15.2518H11.8287V34.0235ZM8.9131 12.6853C8.24407 12.6853 7.59007 12.4869 7.0338 12.1152C6.47753 11.7436 6.04397 11.2153 5.78794 10.5972C5.53192 9.97906 5.46493 9.29893 5.59545 8.64276C5.72597 7.98659 6.04814 7.38386 6.52121 6.91079C6.99428 6.43772 7.59701 6.11556 8.25317 5.98504C8.90934 5.85452 9.58948 5.92151 10.2076 6.17753C10.8257 6.43355 11.354 6.86712 11.7257 7.42339C12.0973 7.97966 12.2957 8.63366 12.2957 9.30268C12.2908 11.171 10.7765 12.6853 8.9131 12.6853ZM33.6781 34.0235H27.847V24.8933C27.847 22.7152 27.8077 19.9177 24.8135 19.9177C21.7799 19.9177 21.3128 22.2875 21.3128 24.736V34.0235H15.4866V15.2518H21.0817V17.8183H21.1604C21.9372 16.3433 23.84 14.7847 26.6818 14.7847C32.5916 14.7847 33.6781 18.6738 33.6781 23.7281V34.0235Z" fill="#112D57"/>
</svg>
