<svg width="42" height="34" viewBox="0 0 42 34" fill="none" xmlns="http://www.w3.org/2000/svg">
<path d="M41.6279 4.50325C40.1234 5.15224 38.4862 5.61932 36.7998 5.80124C38.5507 4.76105 39.8618 3.11774 40.4873 1.17961C38.8443 2.15698 37.0444 2.84233 35.1675 3.20526C34.383 2.36661 33.4342 1.69851 32.3803 1.24258C31.3263 0.786647 30.1897 0.55266 29.0414 0.555196C24.3951 0.555196 20.6585 4.32133 20.6585 8.94296C20.6585 9.59196 20.7372 10.241 20.865 10.8654C13.908 10.5015 7.7032 7.17789 3.57815 2.08918C2.82652 3.37299 2.43264 4.83476 2.43749 6.3224C2.43749 9.23304 3.9174 11.7995 6.17413 13.3089C4.8442 13.2566 3.54542 12.891 2.38341 12.242V12.3453C2.38341 16.4212 5.26455 19.7989 9.10444 20.5757C8.38346 20.763 7.64178 20.8588 6.89687 20.8609C6.35113 20.8609 5.83488 20.8068 5.31372 20.733C6.37571 24.0567 9.46827 26.4707 13.1508 26.5494C10.2697 28.8061 6.66088 30.1336 2.74233 30.1336C2.03925 30.1336 1.39025 30.109 0.716675 30.0304C4.43364 32.4149 8.84386 33.7916 13.5933 33.7916C29.0119 33.7916 37.4488 21.0182 37.4488 9.9312C37.4488 9.56737 37.4488 9.20354 37.4242 8.83971C39.0565 7.64497 40.4873 6.16507 41.6279 4.50325Z" fill="#112D57"/>
</svg>
