<svg width="34" height="29" viewBox="0 0 34 29" fill="none" xmlns="http://www.w3.org/2000/svg">
<path d="M33.645 4.18529C32.4202 4.71364 31.0873 5.09388 29.7144 5.24198C31.1398 4.39517 32.2072 3.05736 32.7164 1.47954C31.3788 2.27521 29.9136 2.83315 28.3855 3.12861C27.7469 2.44587 26.9745 1.90197 26.1165 1.5308C25.2585 1.15963 24.3332 0.969143 23.3983 0.971208C19.6159 0.971208 16.5739 4.0372 16.5739 7.79964C16.5739 8.32798 16.6379 8.85632 16.742 9.36465C11.0783 9.06846 6.02705 6.36271 2.66887 2.22002C2.05697 3.26516 1.73632 4.45517 1.74026 5.66625C1.74026 8.03579 2.94505 10.1251 4.78224 11.3539C3.69955 11.3113 2.64222 11.0137 1.69624 10.4854V10.5694C1.69624 13.8876 4.04176 16.6374 7.16779 17.2698C6.58084 17.4222 5.97704 17.5002 5.37062 17.5019C4.92633 17.5019 4.50606 17.4579 4.08178 17.3979C4.94634 20.1036 7.46398 22.0689 10.4619 22.1329C8.1164 23.9701 5.17849 25.0508 1.98843 25.0508C1.41605 25.0508 0.887711 25.0308 0.339355 24.9668C3.36532 26.908 6.95565 28.0288 10.8222 28.0288C23.3743 28.0288 30.2428 17.63 30.2428 8.60416C30.2428 8.30797 30.2428 8.01178 30.2227 7.71558C31.5516 6.74295 32.7164 5.53817 33.645 4.18529Z" fill="white"/>
</svg>
