<svg width="48" height="38" viewBox="0 0 48 38" fill="none" xmlns="http://www.w3.org/2000/svg">
<path fill-rule="evenodd" clip-rule="evenodd" d="M45.917 37.6666C45.917 37.6666 49.0003 37.6666 49.0003 34.5555C49.0003 31.4444 45.917 22.111 33.5837 22.111C21.2503 22.111 18.167 31.4444 18.167 34.5555C18.167 37.6666 21.2503 37.6666 21.2503 37.6666H45.917ZM21.3182 34.5555H45.8492C45.8636 34.5538 45.878 34.5517 45.8923 34.5493L45.917 34.543C45.9108 33.7217 45.4021 31.3386 43.5737 29.1919C41.8717 27.179 38.8808 25.2221 33.5837 25.2221C28.2896 25.2221 25.2987 27.1821 23.5937 29.1919C21.7652 31.3386 21.2534 33.7248 21.2503 34.543C21.2729 34.5474 21.2955 34.5516 21.3182 34.5555ZM33.5837 15.8888C35.2192 15.8888 36.7877 15.2333 37.9441 14.0664C39.1006 12.8995 39.7503 11.3168 39.7503 9.66658C39.7503 8.01635 39.1006 6.4337 37.9441 5.26681C36.7877 4.09992 35.2192 3.44436 33.5837 3.44436C31.9482 3.44436 30.3796 4.09992 29.2232 5.26681C28.0667 6.4337 27.417 8.01635 27.417 9.66658C27.417 11.3168 28.0667 12.8995 29.2232 14.0664C30.3796 15.2333 31.9482 15.8888 33.5837 15.8888ZM42.8337 9.66658C42.8337 10.8923 42.5944 12.1059 42.1295 13.2383C41.6647 14.3707 40.9833 15.3996 40.1244 16.2662C39.2655 17.1329 38.2457 17.8204 37.1235 18.2895C36.0012 18.7585 34.7984 18.9999 33.5837 18.9999C32.3689 18.9999 31.1661 18.7585 30.0438 18.2895C28.9216 17.8204 27.9019 17.1329 27.0429 16.2662C26.184 15.3996 25.5026 14.3707 25.0378 13.2383C24.5729 12.1059 24.3337 10.8923 24.3337 9.66658C24.3337 7.19123 25.3082 4.81726 27.0429 3.06692C28.7776 1.31658 31.1304 0.333252 33.5837 0.333252C36.0369 0.333252 38.3897 1.31658 40.1244 3.06692C41.8591 4.81726 42.8337 7.19123 42.8337 9.66658ZM21.053 22.9821C19.8196 22.5903 18.5482 22.3326 17.2605 22.2137C16.5369 22.1443 15.8105 22.11 15.0837 22.111C2.75033 22.111 -0.333008 31.4444 -0.333008 34.5555C-0.333008 36.6306 0.693742 37.6666 2.75033 37.6666H15.7497C15.2926 36.6953 15.0646 35.6305 15.0837 34.5555C15.0837 31.4132 16.2461 28.2026 18.4445 25.5208C19.1937 24.6061 20.0663 23.7506 21.053 22.9821ZM14.837 25.2221C9.69399 25.2844 6.77408 27.2133 5.09366 29.1919C3.25291 31.351 2.75033 33.7435 2.75033 34.5555H12.0003C12.0003 31.3044 12.9962 28.0657 14.837 25.2221ZM4.29199 11.2221C4.29199 8.74679 5.26654 6.37282 7.00125 4.62248C8.73597 2.87214 11.0887 1.88881 13.542 1.88881C15.9952 1.88881 18.348 2.87214 20.0827 4.62248C21.8174 6.37282 22.792 8.74679 22.792 11.2221C22.792 13.6975 21.8174 16.0715 20.0827 17.8218C18.348 19.5721 15.9952 20.5555 13.542 20.5555C11.0887 20.5555 8.73597 19.5721 7.00125 17.8218C5.26654 16.0715 4.29199 13.6975 4.29199 11.2221ZM13.542 4.99992C11.9065 4.99992 10.338 5.65547 9.1815 6.82236C8.02503 7.98926 7.37533 9.5719 7.37533 11.2221C7.37533 12.8724 8.02503 14.455 9.1815 15.6219C10.338 16.7888 11.9065 17.4444 13.542 17.4444C15.1775 17.4444 16.746 16.7888 17.9025 15.6219C19.059 14.455 19.7087 12.8724 19.7087 11.2221C19.7087 9.5719 19.059 7.98926 17.9025 6.82236C16.746 5.65547 15.1775 4.99992 13.542 4.99992Z" fill="#23A6F0"/>
</svg>
