<svg width="20" height="20" viewBox="0 0 20 20" fill="none" xmlns="http://www.w3.org/2000/svg">
<path d="M19.1369 7.41927C19.0793 7.24946 18.9731 7.10025 18.8317 6.99006C18.6902 6.87987 18.5195 6.81353 18.3408 6.79922L13.1116 6.38371L10.8488 1.3747C10.7767 1.21337 10.6595 1.07634 10.5113 0.980156C10.3631 0.883971 10.1902 0.832739 10.0135 0.832642C9.83679 0.832545 9.66384 0.883587 9.51552 0.979609C9.36719 1.07563 9.24983 1.21253 9.17759 1.37378L6.91477 6.38371L1.68562 6.79922C1.50993 6.81314 1.34196 6.87738 1.20183 6.98425C1.06169 7.09113 0.955309 7.23612 0.895414 7.40187C0.835518 7.56762 0.824644 7.74712 0.864092 7.91889C0.903539 8.09066 0.991638 8.24743 1.11785 8.37044L4.98216 12.1375L3.61548 18.0555C3.57398 18.2347 3.58728 18.4221 3.65365 18.5936C3.72003 18.7651 3.83641 18.9127 3.98769 19.0172C4.13898 19.1217 4.31819 19.1783 4.50206 19.1797C4.68593 19.1811 4.86598 19.1272 5.01885 19.025L10.0132 15.6955L15.0075 19.025C15.1638 19.1288 15.348 19.1822 15.5355 19.1781C15.723 19.1739 15.9047 19.1125 16.0563 19.002C16.2078 18.8916 16.3219 18.7373 16.3832 18.5601C16.4444 18.3828 16.4499 18.1911 16.399 18.0106L14.7213 12.1403L18.8819 8.39612C19.1543 8.15031 19.2543 7.7669 19.1369 7.41927Z" fill="#F3CD03"/>
</svg>
