<svg width="29" height="28" viewBox="0 0 29 28" fill="none" xmlns="http://www.w3.org/2000/svg">
<path d="M11.2778 15.6471C11.2778 15.153 10.9556 14.8236 10.4722 14.8236H0.805556C0.322222 14.8236 0 15.153 0 15.6471V23.8824C0 24.3765 0.322222 24.7059 0.805556 24.8706L10.4722 26.0236C10.9556 26.0236 11.2778 25.6942 11.2778 25.3648V15.6471ZM13.6944 14.8236C13.2111 14.8236 12.8889 15.153 12.8889 15.6471V25.3648C12.8889 25.8589 13.2111 26.1883 13.6944 26.353L28.1944 28.0001C28.6778 28.0001 29 27.6706 29 27.3412V15.8118C29 15.3177 28.6778 14.9883 28.1944 14.9883L13.6944 14.8236ZM11.2778 2.80005C11.2778 2.30594 10.9556 1.97653 10.4722 2.14123L0.805556 3.29417C0.322222 3.29417 0 3.62358 0 4.1177V12.353C0 12.8471 0.322222 13.1765 0.805556 13.1765H10.4722C10.9556 13.1765 11.2778 12.8471 11.2778 12.353V2.80005ZM13.6944 1.81182C13.2111 1.81182 12.8889 2.30594 12.8889 2.80005V12.5177C12.8889 13.0118 13.2111 13.3412 13.6944 13.3412H28.1944C28.6778 13.3412 29 13.0118 29 12.5177V0.988289C29 0.494172 28.6778 0.16476 28.1944 0.329466L13.6944 1.81182Z" fill="white"/>
</svg>
