<?xml version="1.0" encoding="iso-8859-1"?>
<!-- Generator: Adobe Illustrator 17.1.0, SVG Export Plug-In . SVG Version: 6.00 Build 0)  -->
<!DOCTYPE svg PUBLIC "-//W3C//DTD SVG 1.1//EN" "http://www.w3.org/Graphics/SVG/1.1/DTD/svg11.dtd">
<svg version="1.1" id="Capa_1" xmlns="http://www.w3.org/2000/svg" xmlns:xlink="http://www.w3.org/1999/xlink" x="0px" y="0px"
	 viewBox="0 0 465 465" style="enable-background:new 0 0 465 465;" xml:space="preserve">
<g>
	<path d="M396.902,68.098C352.988,24.185,294.603,0,232.5,0S112.012,24.185,68.098,68.098C24.185,112.012,0,170.397,0,232.5
		s24.185,120.488,68.098,164.402C112.012,440.815,170.397,465,232.5,465s120.488-24.185,164.402-68.098
		C440.815,352.988,465,294.603,465,232.5S440.815,112.012,396.902,68.098z M232.5,450C112.57,450,15,352.43,15,232.5
		S112.57,15,232.5,15S450,112.57,450,232.5S352.43,450,232.5,450z"/>
	<path d="M232.5,195.798c-20.237,0-36.702,16.465-36.702,36.702s16.465,36.702,36.702,36.702s36.702-16.465,36.702-36.702
		S252.737,195.798,232.5,195.798z M232.5,254.202c-11.967,0-21.702-9.735-21.702-21.702s9.735-21.702,21.702-21.702
		s21.702,9.735,21.702,21.702S244.467,254.202,232.5,254.202z"/>
	<path d="M418.258,292.333l-21.846-7.976c5.287-16.716,7.962-34.125,7.962-51.857c0-34.973-10.442-68.63-30.198-97.333
		c-2.348-3.412-7.017-4.276-10.43-1.926c-3.412,2.348-4.274,7.018-1.926,10.43c18.025,26.19,27.554,56.907,27.554,88.829
		c0,15.969-2.38,31.645-7.073,46.706l-80.621-29.434c1.401-5.622,2.108-11.405,2.108-17.272c0-16.958-5.962-32.544-15.886-44.794
		l82.189-82.189c2.929-2.93,2.929-7.678,0-10.607c-2.93-2.928-7.678-2.928-10.607,0l-82.189,82.189
		c-12.251-9.924-27.837-15.886-44.795-15.886c-39.309,0-71.288,31.979-71.288,71.288c0,5.867,0.707,11.65,2.108,17.272
		l-80.621,29.434c-4.693-15.061-7.073-30.736-7.073-46.706c0-86.501,70.373-156.874,156.874-156.874
		c31.438,0,61.766,9.263,87.705,26.787c3.433,2.317,8.094,1.417,10.413-2.017c2.318-3.432,1.416-8.094-2.017-10.413
		c-28.428-19.206-61.659-29.357-96.102-29.357c-94.771,0-171.874,77.103-171.874,171.874c0,17.733,2.676,35.142,7.963,51.857
		l-21.846,7.976c-3.891,1.42-5.894,5.726-4.473,9.617c1.42,3.89,5.724,5.897,9.617,4.473l123.249-44.996
		c1.868-0.682,3.39-2.078,4.229-3.882s0.927-3.867,0.244-5.735c-2.254-6.175-3.397-12.671-3.397-19.31
		c0-31.037,25.251-56.288,56.288-56.288s56.288,25.251,56.288,56.288c0,6.639-1.144,13.135-3.397,19.31
		c-0.683,1.868-0.595,3.932,0.244,5.735s2.36,3.2,4.229,3.882l94.509,34.503c0.001,0,0.002,0.001,0.003,0.001
		c0.001,0,0.003,0.001,0.004,0.001l28.733,10.49c0.85,0.311,1.718,0.457,2.571,0.457c3.061,0,5.936-1.888,7.046-4.93
		C424.151,298.059,422.148,293.753,418.258,292.333z"/>
</g>
<g>
</g>
<g>
</g>
<g>
</g>
<g>
</g>
<g>
</g>
<g>
</g>
<g>
</g>
<g>
</g>
<g>
</g>
<g>
</g>
<g>
</g>
<g>
</g>
<g>
</g>
<g>
</g>
<g>
</g>
</svg>
