<svg width="33" height="33" viewBox="0 0 33 33" fill="none" xmlns="http://www.w3.org/2000/svg">
<path d="M31.7103 0.489746H2.25117C1.54271 0.489746 0.970337 1.06212 0.970337 1.77058V31.2297C0.970337 31.9382 1.54271 32.5105 2.25117 32.5105H31.7103C32.4187 32.5105 32.9911 31.9382 32.9911 31.2297V1.77058C32.9911 1.06212 32.4187 0.489746 31.7103 0.489746ZM28.0119 9.83581H25.4542C23.4489 9.83581 23.0607 10.7884 23.0607 12.1893V15.2753H27.8478L27.2234 20.1065H23.0607V32.5105H18.0694V20.1105H13.8947V15.2753H18.0694V11.713C18.0694 7.57835 20.5951 5.32488 24.2855 5.32488C26.0546 5.32488 27.5716 5.45697 28.0159 5.51701V9.83581H28.0119Z" fill="white"/>
</svg>
