<svg width="33" height="33" viewBox="0 0 33 33" fill="none" xmlns="http://www.w3.org/2000/svg">
<path d="M31.6981 0.489746H2.23896C1.5305 0.489746 0.95813 1.06212 0.95813 1.77058V31.2297C0.95813 31.9382 1.5305 32.5105 2.23896 32.5105H31.6981C32.4065 32.5105 32.9789 31.9382 32.9789 31.2297V1.77058C32.9789 1.06212 32.4065 0.489746 31.6981 0.489746ZM10.4563 27.7755H5.70521V12.4935H10.4563V27.7755ZM8.08275 10.4042C7.53811 10.4042 7.00569 10.2427 6.55283 9.94008C6.09997 9.63749 5.74701 9.20741 5.53859 8.70422C5.33016 8.20103 5.27562 7.64734 5.38188 7.11316C5.48813 6.57897 5.75041 6.08829 6.13553 5.70317C6.52066 5.31805 7.01133 5.05577 7.54552 4.94952C8.0797 4.84326 8.63339 4.8978 9.13658 5.10623C9.63977 5.31465 10.0699 5.66761 10.3724 6.12047C10.675 6.57333 10.8365 7.10574 10.8365 7.65039C10.8325 9.17138 9.59974 10.4042 8.08275 10.4042ZM28.2438 27.7755H23.4968V20.3426C23.4968 18.5695 23.4647 16.292 21.0272 16.292C18.5576 16.292 18.1773 18.2213 18.1773 20.2145V27.7755H13.4342V12.4935H17.9892V14.5829H18.0532C18.6856 13.3821 20.2346 12.1133 22.5481 12.1133C27.3593 12.1133 28.2438 15.2793 28.2438 19.394V27.7755Z" fill="white"/>
</svg>
