<svg width="31" height="39" viewBox="0 0 31 39" fill="none" xmlns="http://www.w3.org/2000/svg">
<path d="M14.3885 38.3172C14.7129 38.5488 15.1015 38.6734 15.5001 38.6734C15.8987 38.6734 16.2874 38.5488 16.6118 38.3172C17.1945 37.9051 30.889 28.017 30.8335 15.6737C30.8335 7.21925 23.9545 0.340332 15.5001 0.340332C7.04571 0.340332 0.166795 7.21925 0.166795 15.6641C0.111211 28.017 13.8058 37.9051 14.3885 38.3172ZM15.5001 4.17367C21.8424 4.17367 27.0001 9.33142 27.0001 15.6832C27.0404 24.1894 18.5898 31.8273 15.5001 34.3324C12.4124 31.8254 3.95988 24.1856 4.00013 15.6737C4.00013 9.33142 9.15788 4.17367 15.5001 4.17367Z" fill="white"/>
</svg>
